<svg width="450" height="482" viewBox="0 0 450 482" fill="none" xmlns="http://www.w3.org/2000/svg">
<g filter="url(#filter0_dd_111_24)">
<rect x="20" y="36" width="410" height="410" rx="205" fill="url(#paint0_linear_111_24)"/>
<rect x="20" y="36" width="410" height="410" rx="205" fill="url(#paint1_linear_111_24)"/>
</g>
<g style="mix-blend-mode:screen">
<g filter="url(#filter1_i_111_24)">
<path d="M77 240.5C77 231.94 83.9396 225 92.5 225L357.5 225C366.06 225 373 231.94 373 240.5C373 249.06 366.06 256 357.5 256L92.5 256C83.9396 256 77 249.06 77 240.5Z" fill="#5C5C5C"/>
</g>
<path d="M92.5 224C83.3873 224 76 231.387 76 240.5C76 249.613 83.3873 257 92.5 257L357.5 257C366.613 257 374 249.613 374 240.5C374 231.387 366.613 224 357.5 224L92.5 224Z" stroke="white" stroke-opacity="0.2" stroke-width="2"/>
</g>
<defs>
<filter id="filter0_dd_111_24" x="-16" y="0" width="482" height="482" filterUnits="userSpaceOnUse" color-interpolation-filters="sRGB">
<feFlood flood-opacity="0" result="BackgroundImageFix"/>
<feColorMatrix in="SourceAlpha" type="matrix" values="0 0 0 0 0 0 0 0 0 0 0 0 0 0 0 0 0 0 127 0" result="hardAlpha"/>
<feOffset dx="12" dy="12"/>
<feGaussianBlur stdDeviation="12"/>
<feComposite in2="hardAlpha" operator="out"/>
<feColorMatrix type="matrix" values="0 0 0 0 0.85098 0 0 0 0 0.592157 0 0 0 0 0.462745 0 0 0 0.25 0"/>
<feBlend mode="normal" in2="BackgroundImageFix" result="effect1_dropShadow_111_24"/>
<feColorMatrix in="SourceAlpha" type="matrix" values="0 0 0 0 0 0 0 0 0 0 0 0 0 0 0 0 0 0 127 0" result="hardAlpha"/>
<feOffset dx="-12" dy="-12"/>
<feGaussianBlur stdDeviation="12"/>
<feComposite in2="hardAlpha" operator="out"/>
<feColorMatrix type="matrix" values="0 0 0 0 1 0 0 0 0 0.803922 0 0 0 0 0.627451 0 0 0 0.25 0"/>
<feBlend mode="normal" in2="effect1_dropShadow_111_24" result="effect2_dropShadow_111_24"/>
<feBlend mode="normal" in="SourceGraphic" in2="effect2_dropShadow_111_24" result="shape"/>
</filter>
<filter id="filter1_i_111_24" x="75" y="223" width="300" height="35" filterUnits="userSpaceOnUse" color-interpolation-filters="sRGB">
<feFlood flood-opacity="0" result="BackgroundImageFix"/>
<feBlend mode="normal" in="SourceGraphic" in2="BackgroundImageFix" result="shape"/>
<feColorMatrix in="SourceAlpha" type="matrix" values="0 0 0 0 0 0 0 0 0 0 0 0 0 0 0 0 0 0 127 0" result="hardAlpha"/>
<feMorphology radius="9" operator="erode" in="SourceAlpha" result="effect1_innerShadow_111_24"/>
<feOffset/>
<feGaussianBlur stdDeviation="5.5"/>
<feComposite in2="hardAlpha" operator="arithmetic" k2="-1" k3="1"/>
<feColorMatrix type="matrix" values="0 0 0 0 0 0 0 0 0 0 0 0 0 0 0 0 0 0 0.25 0"/>
<feBlend mode="normal" in2="shape" result="effect1_innerShadow_111_24"/>
</filter>
<linearGradient id="paint0_linear_111_24" x1="20" y1="36" x2="430" y2="446" gradientUnits="userSpaceOnUse">
<stop stop-color="#FFE768"/>
<stop offset="1" stop-color="#E6D57D"/>
</linearGradient>
<linearGradient id="paint1_linear_111_24" x1="20" y1="36" x2="430" y2="446" gradientUnits="userSpaceOnUse">
<stop stop-color="#85FFE9"/>
<stop offset="1" stop-color="#7DE86B"/>
</linearGradient>
</defs>
</svg>
